HIERARCHY
ROOT Hips
{
	OFFSET 0.00000 0.00000 0.00000
	CHANNELS 6 Xposition Yposition Zposition Zrotation Yrotation Xrotation 
	JOINT LHipJoint
	{
		OFFSET 0 0 0
		CHANNELS 3 Zrotation Yrotation Xrotation
		JOINT LeftUpLeg
		{
			OFFSET 1.37959 -1.78713 0.86582
			CHANNELS 3 Zrotation Yrotation Xrotation
			JOINT LeftLeg
			{
				OFFSET 2.54611 -6.99539 0.00000
				CHANNELS 3 Zrotation Yrotation Xrotation
				JOINT LeftFoot
				{
					OFFSET 2.59951 -7.14211 0.00000
					CHANNELS 3 Zrotation Yrotation Xrotation
					JOINT LeftToeBase
					{
						OFFSET 0.18493 -0.50810 1.96120
						CHANNELS 3 Zrotation Yrotation Xrotation
						End Site
						{
							OFFSET 0.00000 -0.00000 1.02054
						}
					}
				}
			}
		}
	}
	JOINT RHipJoint
	{
		OFFSET 0 0 0
		CHANNELS 3 Zrotation Yrotation Xrotation
		JOINT RightUpLeg
		{
			OFFSET -1.33564 -1.78713 0.86582
			CHANNELS 3 Zrotation Yrotation Xrotation
			JOINT RightLeg
			{
				OFFSET -2.52705 -6.94302 0.00000
				CHANNELS 3 Zrotation Yrotation Xrotation
				JOINT RightFoot
				{
					OFFSET -2.55964 -7.03257 0.00000
					CHANNELS 3 Zrotation Yrotation Xrotation
					JOINT RightToeBase
					{
						OFFSET -0.25804 -0.70896 2.12109
						CHANNELS 3 Zrotation Yrotation Xrotation
						End Site
						{
							OFFSET -0.00000 -0.00000 1.11821
						}
					}
				}
			}
		}
	}
	JOINT LowerBack
	{
		OFFSET 0 0 0
		CHANNELS 3 Zrotation Yrotation Xrotation
		JOINT Spine
		{
			OFFSET -0.02031 2.24248 -0.18900
			CHANNELS 3 Zrotation Yrotation Xrotation
			JOINT Spine1
			{
				OFFSET 0.08342 2.24689 -0.03799
				CHANNELS 3 Zrotation Yrotation Xrotation
				JOINT Neck
				{
					OFFSET 0 0 0
					CHANNELS 3 Zrotation Yrotation Xrotation
					JOINT Neck1
					{
						OFFSET -0.11607 1.55844 0.24628
						CHANNELS 3 Zrotation Yrotation Xrotation
						JOINT Head
						{
							OFFSET 0.06877 1.60174 -0.17013
							CHANNELS 3 Zrotation Yrotation Xrotation
							End Site
							{
								OFFSET 0.03358 1.61266 -0.08543
							}
						}
					}
				}
				JOINT LeftShoulder
				{
					OFFSET 0 0 0
					CHANNELS 3 Zrotation Yrotation Xrotation
					JOINT LeftArm
					{
						OFFSET 3.47537 0.55866 -0.72348
						CHANNELS 3 Zrotation Yrotation Xrotation
						JOINT LeftForeArm
						{
							OFFSET 5.38154 -0.00000 0.00000
							CHANNELS 3 Zrotation Yrotation Xrotation
							JOINT LeftHand
							{
								OFFSET 3.33312 -0.00000 0.00000
								CHANNELS 3 Zrotation Yrotation Xrotation
								JOINT LeftFingerBase
								{
									OFFSET 0 0 0
									CHANNELS 3 Zrotation Yrotation Xrotation
									JOINT LeftHandIndex1
									{
										OFFSET 0.71079 -0.00000 0.00000
										CHANNELS 3 Zrotation Yrotation Xrotation
										End Site
										{
											OFFSET 0.57306 -0.00000 0.00000
										}
									}
								}
								JOINT LThumb
								{
									OFFSET 0 0 0
									CHANNELS 3 Zrotation Yrotation Xrotation
									End Site
									{
										OFFSET 0.58181 -0.00000 0.58181
									}
								}
							}
						}
					}
				}
				JOINT RightShoulder
				{
					OFFSET 0 0 0
					CHANNELS 3 Zrotation Yrotation Xrotation
					JOINT RightArm
					{
						OFFSET -3.27844 0.90739 -0.35708
						CHANNELS 3 Zrotation Yrotation Xrotation
						JOINT RightForeArm
						{
							OFFSET -5.16954 -0.00000 0.00000
							CHANNELS 3 Zrotation Yrotation Xrotation
							JOINT RightHand
							{
								OFFSET -3.38287 -0.00000 0.00000
								CHANNELS 3 Zrotation Yrotation Xrotation
								JOINT RightFingerBase
								{
									OFFSET 0 0 0
									CHANNELS 3 Zrotation Yrotation Xrotation
									JOINT RightHandIndex1
									{
										OFFSET -0.81797 -0.00000 0.00000
										CHANNELS 3 Zrotation Yrotation Xrotation
										End Site
										{
											OFFSET -0.65947 -0.00000 0.00000
										}
									}
								}
								JOINT RThumb
								{
									OFFSET 0 0 0
									CHANNELS 3 Zrotation Yrotation Xrotation
									End Site
									{
										OFFSET -0.66953 -0.00000 0.66953
									}
								}
							}
						}
					}
				}
			}
		}
	}
}
MOTION
Frames: 10
Frame Time: 0.0909091
0.00 0.00 0.00 0 0 0 0 0 0 -21 0 0 0 0 0 0 0 0 0 0 0 0 0 0 21 0 0 0 0 0 0 0 0 0 0 0 0 0 0 0 0 0 0 0 0 0 0 -16 0 0 21 0 0 11 0 0 0 -8 0 0 0 0 0 0 0 0 0 0 0 0 0 0 0 0 0 0 0 0 8 0 0 0 0 0 0 0 0 0 0 0 0 0 0 0 0 0
0.00 0.00 0.00 -181.6230 -73.5218 186.0460 0.0000 0.0000 0.0000 -16.0471 -2.5152 -4.2474 1.6551 8.1073 23.0406 1.1391 2.0455 -20.9954 0.0042 0.4165 1.1443 0.0000 0.0000 0.0000 10.0867 1.9033 -20.7527 -3.9983 -12.1581 36.2936 -0.4999 -0.6824 -13.6204 -0.5734 -4.8491 13.4787 -6.2055 -1.8611 5.4670 3.5305 -2.8543 2.8196 7.3213 -1.5813 0.3491 -17.4945 -14.7867 -0.8023 13.6459 -22.1366 15.4074 4.9719 -10.9850 8.3896 0.0000 -0.0000 0.0000 -89.6723 0.2871 18.7545 19.2170 -29.6875 -5.1379 -0.0000 -0.0000 5.7150 0.5345 41.0282 0.3509 -7.1250 0.0000 -0.0000 -46.0014 65.2542 -24.8358 0.0000 -0.0000 0.0000 82.2238 -2.6009 0.4035 -32.1181 42.6412 -12.8208 0.0000 -0.0000 -22.4341 -17.9917 18.9618 -6.0239 7.1250 -0.0000 -0.0000 6.6322 -10.2225 5.3871
0.00 0.00 0.00 -180.1210 -72.2314 184.8120 0.0000 0.0000 0.0000 -15.6717 -1.7773 -0.2489 1.5094 7.7592 21.9849 1.2639 5.6466 -23.9611 0.1675 -2.6366 -7.2687 0.0000 0.0000 0.0000 5.4868 9.6952 -16.5134 -0.6709 -5.2380 14.5888 -0.0165 0.2997 -2.3372 -1.1678 6.8598 -19.3008 -3.1467 -1.9214 7.5290 3.3576 -2.8121 2.0789 5.5058 -1.4493 -1.7435 -17.2782 -15.5014 -0.1441 14.7154 -22.7938 11.8741 5.2788 -11.2696 7.3365 -0.0000 0.0000 0.0000 -82.4128 -1.5710 13.6827 20.6127 -31.3735 -5.8470 -0.0000 -0.0000 4.4815 -0.1546 39.8109 -0.0990 -7.1250 0.0000 -0.0000 -44.8130 64.2053 -23.0155 -0.0000 0.0000 0.0000 42.7891 23.8953 -19.4981 -27.5610 38.7089 -9.8479 0.0000 -0.0000 -30.7900 -14.1460 21.6705 -5.3171 7.1250 -0.0000 -0.0000 9.2208 -7.9319 7.9667
0.00 0.00 0.00 -160.7670 -76.9390 164.5570 0.0000 0.0000 0.0000 -9.2419 -3.6056 -6.3109 4.1727 12.3867 37.1142 1.4954 2.8809 -24.2923 0.0005 0.1477 0.4059 0.0000 0.0000 0.0000 11.9555 5.4836 -18.9652 -1.7848 -8.4026 23.9438 -0.0494 0.3489 -4.0849 -1.2914 7.2004 -20.3106 1.5862 -0.8340 12.6402 5.4546 -0.9661 3.3109 4.9951 -0.6135 -3.5344 -16.8439 -17.0182 3.2512 15.0960 -24.8416 8.4877 5.3997 -12.3992 6.0314 -0.0000 0.0000 0.0000 -84.2378 -1.9082 20.7714 25.0367 -36.2414 -8.3116 -0.0000 -0.0000 4.3528 -2.6678 32.6804 -1.4412 -7.1250 0.0000 -0.0000 -38.6588 58.2064 -13.8153 -0.0000 0.0000 0.0000 30.8303 26.3743 -41.9851 -17.9636 28.1105 -4.5321 0.0000 -0.0000 -38.6472 -17.2391 20.6440 -6.2433 7.1250 -0.0000 -0.0000 7.2065 -8.5899 6.0990
0.00 0.00 0.00 -85.5305 -81.6590 93.4367 0.0000 0.0000 0.0000 -8.4846 -1.3128 -25.8106 7.9433 16.0774 52.3583 1.3768 0.6493 -22.4297 0.2952 -3.4938 -9.6566 0.0000 0.0000 0.0000 13.9785 1.1131 -17.2108 -1.0614 -6.5502 18.3894 0.2315 -9.0855 -6.7732 -1.9676 8.7982 -25.1660 3.3889 -0.7666 13.9321 6.8852 -0.6828 4.4275 5.4779 -0.5378 -3.0744 -15.3999 -19.0092 6.1896 17.1655 -27.2929 4.1028 5.8978 -13.7244 4.7160 0.0000 -0.0000 0.0000 -84.7624 5.5444 14.8707 23.4665 -34.5950 -7.4014 -0.0000 -0.0000 2.6528 -0.2359 34.5722 -0.1339 -7.1250 0.0000 -0.0000 -38.2962 60.2528 -15.5806 0.0000 -0.0000 0.0000 31.9057 11.5418 -61.6732 -20.1535 30.8268 -5.6098 0.0000 -0.0000 -46.7606 -12.4460 11.4284 -2.5040 7.1250 -0.0000 -0.0000 10.2890 -18.3893 6.6253
0.00 0.00 0.00 -108.1090 -76.4077 118.6020 0.0000 0.0000 0.0000 -20.6790 8.4568 -31.4140 7.4810 15.7239 50.6710 3.5136 4.4289 -37.1652 0.0516 1.4653 4.0300 0.0000 0.0000 0.0000 12.9435 -0.9368 -26.5948 -1.9808 -8.8259 25.2522 2.1961 -25.3186 -13.2945 -0.6604 -5.1977 14.4733 4.1374 -0.4358 16.0494 5.7693 -0.2253 5.8672 3.8055 -0.3470 -2.7210 -19.5851 -17.7687 4.4872 17.4163 -25.3264 3.4628 6.5465 -12.7367 5.0394 0.0000 0.0000 0.0000 -88.9524 12.1179 0.9042 17.3141 -27.2700 -4.2302 -0.0000 -0.0000 2.3923 5.7573 40.5844 3.7528 -7.1250 0.0000 -0.0000 -40.2470 66.4638 -22.3251 0.0000 0.0000 0.0000 24.3022 3.4094 -68.0935 -12.3762 20.3664 -2.2315 0.0000 -0.0000 -32.5445 12.6604 3.1190 0.7003 7.1250 -0.0000 -0.0000 28.7639 -26.2161 14.9629
0.00 0.00 0.00 -130.2780 -74.2936 140.1510 0.0000 0.0000 0.0000 -24.1598 8.7148 -31.4660 7.3314 15.6048 50.1170 3.2812 8.0805 -37.6973 0.0236 0.9910 2.7240 0.0000 0.0000 0.0000 16.0220 -5.0232 -35.1212 -5.3641 -13.7825 42.3730 0.2403 -11.6072 -12.5013 -0.1782 2.7194 -7.4985 1.6658 0.2395 17.5432 5.2456 0.2989 6.1192 4.5800 -0.1133 -3.2864 -19.3796 -17.3953 3.7885 17.6410 -24.8922 4.5453 6.5628 -12.4740 5.4110 0.0000 -0.0000 0.0000 -88.1628 12.2107 10.3379 21.3510 -32.2358 -6.2361 -0.0000 0.0000 -2.4921 6.1185 40.4524 3.9785 -7.1250 0.0000 -0.0000 -39.6787 66.4726 -21.9750 0.0000 -0.0000 0.0000 26.8704 8.6333 -63.5652 -13.0473 21.3565 -2.4705 0.0000 -0.0000 -35.3180 12.8232 6.0357 1.3711 7.1250 -0.0000 -0.0000 28.1733 -23.5810 16.5904
0.00 0.00 0.00 -137.3540 -70.6772 145.5460 0.0000 0.0000 0.0000 -20.5039 4.7354 -35.6072 11.6375 18.2332 64.8352 1.7465 1.0968 -25.4052 0.3036 -3.5425 -9.7930 0.0000 0.0000 0.0000 17.6970 -2.8065 -31.4097 -7.7758 -15.9518 51.7509 -0.5742 -5.0366 -17.0365 -0.8687 5.9428 -16.6186 0.5358 -0.3504 18.5678 4.9969 -0.7184 6.4736 5.1925 -0.6522 -3.3656 -19.1685 -16.4943 3.0871 18.3931 -24.2053 7.5635 6.7544 -12.0648 6.4093 0.0000 -0.0000 0.0000 -83.3025 7.8856 23.3195 30.3804 -41.2172 -11.6595 -0.0000 0.0000 -1.6244 11.9275 39.9099 7.7180 -7.1250 0.0000 -0.0000 -32.8115 67.8023 -18.7626 0.0000 -0.0000 0.0000 31.5930 20.0378 -68.8187 -11.9958 19.7983 -2.1009 0.0000 -0.0000 -30.9207 13.1920 9.7016 2.2620 7.1250 -0.0000 -0.0000 27.6225 -20.2427 18.6263
0.00 0.00 0.00 -151.3790 -46.6880 155.1770 0.0000 0.0000 0.0000 1.9962 -9.1161 -38.8464 15.0217 19.3951 75.3020 0.5059 -15.1809 -15.5298 0.0300 -1.1179 -3.0732 0.0000 0.0000 0.0000 18.9566 5.9352 -23.3815 -3.9933 -12.1515 36.2701 -0.0655 1.2445 -4.5593 -2.1218 9.1152 -26.1564 3.8016 -0.3464 22.4679 5.2331 -0.3198 6.9847 3.6131 -0.6316 -4.8440 -17.7871 -12.0842 -5.5680 11.5082 -16.8418 15.9705 4.8432 -8.3787 8.3654 0.0000 -0.0000 0.0000 -89.2286 -22.7456 62.6401 46.0919 -51.2923 -23.0877 -0.0000 -0.0000 1.2211 7.2568 36.1064 4.2913 -7.1250 0.0000 -0.0000 -32.5949 63.3663 -15.3406 0.0000 -0.0000 0.0000 41.2923 47.1031 -52.5183 -12.7820 20.9670 -2.3747 0.0000 -0.0000 -33.6897 9.7814 14.9754 2.5507 7.1250 -0.0000 -0.0000 24.6301 -15.5345 19.0036
0.00 0.00 0.00 -163.4640 -33.6144 165.2310 0.0000 0.0000 0.0000 -8.1555 -5.0806 -37.7449 13.3728 18.9127 70.2795 0.5945 -9.8384 -14.4020 0.0289 1.0967 3.0150 0.0000 0.0000 0.0000 11.1776 15.7671 -18.9413 -1.3048 -7.2363 20.4173 -0.1400 -5.5257 7.1873 -1.1781 6.8889 -19.3868 -2.5028 -0.5292 23.3806 2.6870 -2.0012 6.3380 4.9581 -1.3616 -5.8748 -14.6265 -7.5563 -12.8037 8.8211 -9.6526 19.6352 4.2170 -4.8597 9.4542 0.0000 0.0000 0.0000 -102.9738 -44.1674 82.2386 38.9581 -47.4404 -17.6679 -0.0000 -0.0000 2.2070 14.9666 40.1157 9.7731 -7.1250 0.0000 -0.0000 -29.7979 68.9163 -17.6481 0.0000 0.0000 0.0000 53.1572 62.4722 -34.0019 -12.6464 20.7669 -2.3264 0.0000 -0.0000 -39.9017 44.6585 18.3487 17.2793 7.1250 -0.0000 -0.0000 39.5372 -3.9821 52.0134
